Coordinates
version=1
nRows=19
nColumns=34
inDegrees=yes

Units are S.I. units (second, meters, Newtons, ...)
If the header above contains a line with 'inDegrees', this indicates whether rotational values are in degrees (yes) or radians (no).

endheader
time	pelvis_tilt	pelvis_list	pelvis_rotation	pelvis_tx	pelvis_ty	pelvis_tz	hip_flexion_r	hip_adduction_r	hip_rotation_r	knee_angle_r	ankle_angle_r	subtalar_angle_r	mtp_angle_r	hip_flexion_l	hip_adduction_l	hip_rotation_l	knee_angle_l	ankle_angle_l	subtalar_angle_l	mtp_angle_l	lumbar_extension	lumbar_bending	lumbar_rotation	arm_flex_r	arm_add_r	arm_rot_r	elbow_flex_r	pro_sup_r	arm_flex_l	arm_add_l	arm_rot_l	elbow_flex_l	pro_sup_l
      7.51666670	      9.35605424	     11.05817191	      0.58619542	      0.06273564	      0.95915096	      0.09585804	      1.01648121	     -1.71395641	     -5.26664140	     22.35835538	     14.45805428	     -0.87035180	      0.00000000	     49.87271508	     -1.05535548	    -10.49367640	     11.00186947	     -5.49244485	      1.26720091	      0.00000000	    -20.04725453	     -5.75389296	      2.88505932	     89.47214605	     -3.05403600	     67.28346036	    127.61402850	     99.16177635	     88.14901587	      2.93539257	     75.66186206	    131.71174888	     91.05236518
      7.53333330	      9.48023398	     10.81383662	      0.46658293	      0.06107690	      0.96378302	      0.09663058	      0.84085705	     -1.38623663	     -4.94643443	     21.95662486	     14.42907622	     -0.61277844	      0.00000000	     49.83884210	     -1.30947590	    -10.60675262	     10.97848458	     -5.46576040	      1.53295510	      0.00000000	    -19.94588505	     -5.46923167	      2.65912551	     88.95849569	     -3.21350318	     67.28091667	    127.54037135	     99.26487099	     88.12305958	      2.36154744	     75.67259043	    131.50256128	     91.12037694
      7.55000000	      9.61842983	     10.67460283	      0.31386621	      0.06335882	      0.96704148	      0.09686533	      0.46089371	     -1.24398751	     -5.02000038	     21.37132414	     13.85283802	     -0.48742750	      0.00000000	     49.59072363	     -1.54672229	    -10.86309315	     10.91315309	     -5.20829074	      1.95207097	      0.00000000	    -19.93705735	     -5.25987375	      2.36164658	     88.50667146	     -2.82193131	     67.46196517	    127.40321187	     99.44360358	     87.99111459	      1.86093982	     75.62942091	    130.41832648	     91.20295237
      7.56666670	      9.51684240	     10.70477157	      0.24812964	      0.06320618	      0.96541324	      0.09580521	      0.28466526	     -1.27779044	     -4.86905853	     20.72872576	     13.54366809	     -0.35103916	      0.00000000	     49.80721184	     -1.59665461	    -11.01841763	     11.11431958	     -4.74511646	      2.00809985	      0.00000000	    -20.06621553	     -5.28453395	      1.71473700	     88.65056372	     -2.19442783	     67.51877334	    127.41230103	     99.57392476	     88.52835080	      1.64511687	     75.27557451	    129.30752788	     91.23670235
      7.58333330	      9.52538427	     10.92121348	      0.40594224	      0.06608493	      0.96699718	      0.09430414	     -0.79963063	     -1.48470285	     -4.79325527	     19.16622921	     13.27630573	     -0.28420683	      0.00000000	     49.73378219	     -1.33374153	    -11.02298542	     11.22359129	     -4.51195990	      2.13375855	      0.00000000	    -19.77593525	     -5.37829519	      1.50928521	     88.29904620	     -2.42009163	     67.59274284	    127.25546812	     99.72983652	     88.21606697	      1.50770755	     75.08446485	    128.88042687	     91.27036981
      7.60000000	      9.49432885	     11.01744355	      0.47712420	      0.06442630	      0.97091735	      0.09458507	     -1.40253545	     -1.51208485	     -4.44084274	     18.07256989	     12.88126444	     -0.04126487	      0.00000000	     49.62698184	     -1.15923544	    -10.87069078	     11.30576142	     -4.32258455	      2.15460695	      0.00000000	    -19.39834154	     -5.54049629	      1.60503602	     87.88454420	     -2.89753679	     67.68709092	    127.12126072	     99.81254076	     87.68449751	      1.66982827	     75.19203811	    129.40874923	     91.30518862
      7.61666670	      9.47532508	     11.15805395	      0.41995273	      0.06333320	      0.97229506	      0.09364490	     -2.02201597	     -1.65691309	     -4.21504133	     16.88590008	     12.17805101	      0.08590935	      0.00000000	     49.46712080	     -1.04357198	    -10.71536199	     11.02879748	     -4.31073951	      2.26306888	      0.00000000	    -19.24103848	     -5.64931901	      2.64787970	     87.76594128	     -3.30818552	     67.71471323	    126.83884698	     99.91581065	     87.31952789	      2.22217703	     75.31070521	    130.17706164	     91.36928302
      7.63333330	      9.57842988	     11.23129381	      0.53103081	      0.06443419	      0.97572832	      0.09242602	     -2.72969218	     -1.69133479	     -3.98725004	     15.77110577	     11.27296359	     -0.03076340	      0.00000000	     49.04909825	     -0.81918492	    -10.85016458	     10.61206133	     -4.63939208	      2.47818052	      0.00000000	    -19.48060218	     -5.48791009	      3.13061146	     87.95565117	     -3.87422774	     67.80913105	    126.42309303	    100.05061945	     87.21610310	      2.52060705	     75.49084953	    129.83532085	     91.44185241
      7.65000000	      9.61760326	     11.32564998	      0.60256045	      0.06504862	      0.97131738	      0.09301513	     -3.45085833	     -1.59439254	     -3.79021047	     14.49160395	     10.90939197	     -0.25627426	      0.00000000	     48.91926072	     -0.73739051	    -10.63326019	     10.34569632	     -4.67939311	      2.65998922	      0.00000000	    -19.46594792	     -5.72296752	      2.89970427	     88.06820673	     -4.21003747	     67.68687586	    126.17743723	    100.14265053	     87.49651021	      2.23636372	     75.30769209	    129.05214620	     91.47092190
      7.66666670	      9.71058026	     11.44737919	      0.58051286	      0.06513730	      0.97415093	      0.09265860	     -4.23651976	     -1.57889569	     -3.74863900	     13.11706227	     10.21713799	     -0.74556438	      0.00000000	     48.77523566	     -0.66648538	    -10.40936752	     10.25973189	     -4.76931506	      2.43057898	      0.00000000	    -19.67822478	     -5.82961600	      3.57065995	     88.23031635	     -4.50050128	     67.60730953	    126.22448182	    100.28560284	     87.56529982	      2.38706147	     75.28285114	    127.99747244	     91.49721505
      7.68333330	      9.77127956	     11.53097590	      0.60500483	      0.06593882	      0.97367612	      0.09199092	     -4.82250952	     -1.55927585	     -3.78629535	     12.02685148	      9.69409410	     -0.97487766	      0.00000000	     48.60693819	     -0.60027677	    -10.38767788	     10.17772118	     -4.78308096	      2.28839666	      0.00000000	    -19.47239796	     -5.95821173	      4.01178250	     87.99467150	     -5.17707271	     67.69571124	    126.48016810	    100.36034329	     87.13171688	      1.89955849	     75.24050524	    127.09240009	     91.47819207
      7.70000000	      9.54277769	     11.66711981	      0.63643146	      0.06411316	      0.97298663	      0.09169406	     -4.83675255	     -1.65984122	     -3.55782103	     11.36420731	      9.68036930	     -0.93816438	      0.00000000	     48.77989522	     -0.49438573	    -10.23917343	     10.08089086	     -4.84484107	      2.33874236	      0.00000000	    -19.41045227	     -6.03638713	      4.07678611	     88.29990183	     -5.08024298	     67.57573759	    126.53330245	    100.36878117	     87.39550218	      1.82148964	     75.08395648	    126.67126226	     91.46480348
      7.71666670	      9.86627311	     11.73269514	      0.58134091	      0.06570478	      0.97701000	      0.09074840	     -5.33629810	     -1.73305252	     -3.10925612	     11.05294364	      9.04167557	     -1.55309610	      0.00000000	     48.16214262	     -0.35444433	     -9.88048653	      9.89356392	     -4.99344454	      2.16408709	      0.00000000	    -19.61319771	     -6.29154984	      4.10495428	     88.19957339	     -5.62014980	     67.52598961	    126.61556730	    100.45807932	     87.27297357	      2.16904152	     74.90709423	    124.02637183	     91.31464632
      7.73333330	      9.84577879	     11.76305236	      0.51765519	      0.06589919	      0.97579260	      0.09066268	     -5.37318999	     -1.80470332	     -3.26393884	     11.02203477	      8.83860156	     -1.65380223	      0.00000000	     47.97799954	     -0.29990749	     -9.80227030	      9.80317848	     -4.93078631	      2.19893251	      0.00000000	    -19.59513553	     -6.17947231	      4.43306819	     88.18048079	     -5.42706378	     67.60135690	    126.88092024	    100.46817388	     87.21920490	      2.04637282	     74.93909419	    123.66578260	     91.29684396
      7.75000000	     10.13629400	     11.67852929	      0.59119984	      0.06711465	      0.97615110	      0.09097832	     -5.62138476	     -1.68543141	     -3.39838369	     11.08817143	      8.47088691	     -2.10792983	      0.00000000	     47.53671900	     -0.23581556	     -9.65551935	      9.82453408	     -4.75480131	      2.25898983	      0.00000000	    -19.56269789	     -6.13815522	      4.50936183	     87.82537463	     -5.94017089	     67.85935078	    127.35283042	    100.49493376	     86.64399105	      1.48619282	     74.92911843	    122.35828976	     91.21900362
      7.76666670	     10.18229305	     11.67394880	      0.86159728	      0.06832967	      0.97307159	      0.08926446	     -5.61801415	     -1.67705754	     -3.72490210	     11.37631190	      8.26070863	     -2.87920582	      0.00000000	     47.54534405	     -0.00323464	     -9.44969140	      9.98782767	     -4.40568161	      2.11716510	      0.00000000	    -19.44432779	     -6.21959449	      4.09083346	     87.65167969	     -6.01939634	     67.97084774	    127.62768469	    100.50118841	     86.64484364	      1.44484493	     74.82447829	    120.68095017	     91.09925384
      7.78333330	     10.24909937	     11.65215967	      0.74267937	      0.06761733	      0.97452972	      0.08894256	     -5.42828929	     -1.73392215	     -3.87691098	     11.95513188	      8.28502292	     -3.08141674	      0.00000000	     47.41481251	     -0.02647807	     -9.29667545	     10.11809034	     -4.32406826	      2.05879321	      0.00000000	    -19.40320465	     -6.30303530	      4.12325045	     87.70900481	     -6.06359697	     67.91481820	    127.65215494	    100.49505531	     86.60195190	      1.42030376	     74.89365577	    120.60944604	     91.08285963
      7.80000000	     10.20694523	     11.63059633	      0.62728685	      0.06670603	      0.97739912	      0.08910391	     -5.30007014	     -1.70465630	     -3.66576187	     11.99599930	      8.65506569	     -3.38476971	      0.00000000	     47.24754333	     -0.07636631	     -9.27808539	     10.14628672	     -4.33901369	      1.71942034	      0.00000000	    -19.09467235	     -6.48650820	      4.28226241	     87.50387229	     -6.43255089	     67.76907255	    127.78155072	    100.46617928	     86.26859889	      1.86485352	     75.20871412	    121.73555411	     91.07228989
      7.81666670	      9.87240137	     11.75546727	      0.65940675	      0.07045070	      0.97344293	      0.08889261	     -5.03062167	     -1.84547725	     -3.62825441	     12.03363255	      8.43048952	     -3.70311751	      0.00000000	     47.46793411	      0.00651227	     -8.98553182	     10.20078978	     -4.48681748	      1.40047875	      0.00000000	    -18.20545661	     -6.79910720	      4.29917781	     87.00368280	     -6.50422473	     67.30045076	    128.80496261	    100.39825151	     85.78785056	      1.62449944	     75.52408190	    125.09838516	     91.15447046
